# xmcd
#
# Track frame offsets:
#	150
#	11660
#	26552
#	37637
#	52570
#	70187
#	83822
#	96405
#	108992
#	119990
#	133937
#	150165
#	160575
#	173720
#	185015
#	197100
#	209592
#	225210
#	240340
#	250977
#
# Disc length: 3524 seconds
#
# Revision: 0
# Processed by: cddbd v1.4PL0 Copyright (c) Steve Scherf et al.
# Submitted via: dBpowerAMP V4.0
#
DISCID=fb0dc214
DTITLE=Various Artist - A Town South Of Bakersfield Vol.1 and 2
DYEAR=1988
DGENRE=Country
TTITLE0=Jim Lauderdale - What Am I Waiting For 
TTITLE1=Crazy Hearts - We Get Along Just Fine (When We're Apart) 
TTITLE2=Re Wrinkler - Anne Harvey - Van Vleck, Ree - Mister Love 
TTITLE3=Candye Kane - Tell Me a Lie 
TTITLE4=Jeffrey Steele - Driftin' Man 
TTITLE5=Jann Brown - Louisville
TTITLE6=David Durham - Let There Be Love  
TTITLE7=Lucinda Williams - Dark Side of Life
TTITLE8=Pete and The Bigshots - Venice Skyline Ray 
TTITLE9=James Intveld - Somewhere Down the Road 
TTITLE10=Rosie Flores - Albert Lee - Heartbreak Train 
TTITLE11=Billy Swan - Baby, I'll Show You 
TTITLE12=Lonesome Strangers - Lonesome Pine 
TTITLE13=Katy Moffatt - Love and Only Love
TTITLE14=Eddys - Big Big Love  
TTITLE15=Dwight Yoakam - I'll Be Gone 
TTITLE16=Tin Star - Happy Hour 
TTITLE17=George Highfill - Waitin' Up 
TTITLE18=Kathy Robertson - I'm Not Over You 
TTITLE19=Reach For The Sky - Same Old Fool 
EXTD=Regards, Anders Fors
EXTT0=
EXTT1=
EXTT2=
EXTT3=
EXTT4=
EXTT5=
EXTT6=
EXTT7=
EXTT8=
EXTT9=
EXTT10=
EXTT11=
EXTT12=
EXTT13=
EXTT14=
EXTT15=
EXTT16=
EXTT17=
EXTT18=
EXTT19=
PLAYORDER=
